<svg width="19.789001" height="16.726074" viewBox="0 0 19.789 16.7261" fill="none" xmlns="http://www.w3.org/2000/svg" xmlns:xlink="http://www.w3.org/1999/xlink">
	<defs/>
	<path id="logo" d="M2.13 13.77L7.32 13.77L7.1 15.3L5.96 15.3C5.58 15.3 5.26 15.62 5.26 16.01C5.26 16.4 5.58 16.72 5.96 16.72L13.82 16.72C14.2 16.72 14.52 16.4 14.52 16.01C14.52 15.62 14.2 15.3 13.82 15.3L12.68 15.3L12.45 13.77L17.65 13.77C19.07 13.77 19.78 13.09 19.78 11.64L19.78 2.13C19.78 0.68 19.07 0 17.65 0L2.13 0C0.71 0 0 0.68 0 2.13L0 11.64C0 13.09 0.71 13.77 2.13 13.77ZM1.69 10.12C1.44 10.12 1.33 10.02 1.33 9.77L1.33 2.15C1.33 1.56 1.58 1.33 2.15 1.33L17.63 1.33C18.19 1.33 18.45 1.56 18.45 2.15L18.45 9.77C18.45 10.02 18.33 10.12 18.08 10.12L1.69 10.12ZM9.89 12.95C9.47 12.95 9.12 12.6 9.12 12.18C9.12 11.77 9.47 11.42 9.89 11.42C10.3 11.42 10.65 11.77 10.65 12.18C10.65 12.6 10.3 12.95 9.89 12.95Z" fill="#007AFF" fill-opacity="1.000000" fill-rule="evenodd"/>
</svg>
